<svg width="33" height="33" viewBox="0 0 33 33" fill="none" xmlns="http://www.w3.org/2000/svg">
<path d="M9.63278 0C8.30858 0 7.06059 0.251953 5.88869 0.755859C4.71679 1.25977 3.69728 1.95117 2.83008 2.83008C1.95118 3.69727 1.25978 4.7168 0.755884 5.88867C0.251984 7.06055 -1.52588e-05 8.31445 -1.52588e-05 9.65039C-1.52588e-05 10.9746 0.251984 12.2227 0.755884 13.3945C1.25978 14.5547 1.95118 15.5684 2.83008 16.4355C3.69728 17.3027 4.71679 17.9883 5.88869 18.4922C7.06059 18.9961 8.30858 19.248 9.63278 19.248C10.7461 19.248 11.7949 19.0781 12.7793 18.7383C13.7637 18.3867 14.6602 17.8945 15.4688 17.2617L27.1934 29.0215L31.9043 32.3965C31.9512 32.4551 32.0156 32.4844 32.0977 32.4844C32.1328 32.4844 32.168 32.4785 32.2031 32.4668C32.2383 32.4551 32.2676 32.4316 32.291 32.3965C32.3613 32.3262 32.3965 32.25 32.3965 32.168C32.3965 32.0977 32.3613 32.0273 32.291 31.957L28.916 27.2812L17.209 15.5742C17.8418 14.7422 18.3399 13.834 18.7031 12.8496C19.0547 11.8535 19.2305 10.7871 19.2305 9.65039C19.2305 8.31445 18.9844 7.06055 18.4922 5.88867C17.9883 4.7168 17.3027 3.69727 16.4356 2.83008C15.5684 1.95117 14.5547 1.25977 13.3945 0.755859C12.2227 0.251953 10.9688 0 9.63278 0Z" fill="black"/>
</svg>
