<svg width="36" height="42" viewBox="0 0 36 42" fill="none" xmlns="http://www.w3.org/2000/svg">
<path d="M35.1094 0V27.2812H0V0H35.1094ZM7.82812 22.3125V17.5781H3.11719V22.3125H7.82812ZM7.82812 15.9141V11.1797H3.11719V15.9141H7.82812ZM7.82812 9.51562V4.78125H3.11719V9.51562H7.82812ZM15.9141 22.3125V17.5781H11.1797V22.3125H15.9141ZM15.9141 15.9141V11.1797H11.1797V15.9141H15.9141ZM15.9141 9.51562V4.78125H11.1797V9.51562H15.9141ZM23.9766 22.3125V17.5781H19.1953V22.3125H23.9766ZM23.9766 15.9141V11.1797H19.1953V15.9141H23.9766ZM23.9766 9.51562V4.78125H19.1953V9.51562H23.9766ZM32.0625 22.3125V17.5781H27.2578V22.3125H32.0625ZM32.0625 15.9141V11.1797H27.2578V15.9141H32.0625ZM27.2578 9.51562H32.0625V4.78125H27.2578V9.51562ZM35.1094 28.7812V41.5781H20.6953V32.0625H14.4609V41.5781H0V28.7812H35.1094Z" fill="black"/>
</svg>
