<svg width="36" height="37" viewBox="0 0 36 37" fill="none" xmlns="http://www.w3.org/2000/svg">
<path d="M20.0566 10.4766V14.5898H15.9434V10.4766H20.0566ZM33.9961 0C34.2539 0 34.5 0.0527344 34.7344 0.158203C34.9805 0.263672 35.1973 0.404297 35.3848 0.580078C35.5723 0.755859 35.7188 0.955078 35.8242 1.17773C35.9414 1.40039 36 1.62891 36 1.86328V34.541C36 34.7988 35.9414 35.0391 35.8242 35.2617C35.7188 35.4961 35.5723 35.7012 35.3848 35.877C35.1973 36.0527 34.9805 36.1934 34.7344 36.2988C34.5 36.4043 34.2539 36.457 33.9961 36.457H1.91602C1.64648 36.457 1.39453 36.4043 1.16016 36.2988C0.925781 36.1934 0.720703 36.0527 0.544922 35.877C0.380859 35.7012 0.246094 35.4961 0.140625 35.2617C0.046875 35.0391 0 34.7988 0 34.541V1.86328C0 1.33594 0.175781 0.896484 0.527344 0.544922C0.890625 0.181641 1.35352 0 1.91602 0H33.9961ZM33.5566 33.9961V8.19141H2.4082V33.9961H33.5566ZM14.1152 10.4766V14.5898H10.002V10.4766H14.1152ZM31.8691 10.4766V14.5898H27.7559V10.4766H31.8691ZM25.9277 10.4766V14.5898H21.8672V10.4766H25.9277ZM20.0566 16.4004V20.4785H15.9434V16.4004H20.0566ZM14.1152 16.4004V20.4785H10.002V16.4004H14.1152ZM8.19141 16.4004V20.4785H4.11328V16.4004H8.19141ZM31.8691 16.4004V20.4785H27.7559V16.4004H31.8691ZM25.9277 16.4004V20.4785H21.8672V16.4004H25.9277ZM20.0566 22.3066V26.4199H15.9434V22.3066H20.0566ZM14.1152 22.3066V26.4199H10.002V22.3066H14.1152ZM8.19141 22.3066V26.4199H4.11328V22.3066H8.19141ZM31.8691 22.3066V26.4199H27.7559V22.3066H31.8691ZM25.9277 22.3066V26.4199H21.8672V22.3066H25.9277ZM20.0566 28.248V32.3438H15.9434V28.248H20.0566ZM14.1152 28.248V32.3438H10.002V28.248H14.1152ZM8.19141 28.248V32.3438H4.11328V28.248H8.19141ZM25.9277 28.248V32.3438H21.8672V28.248H25.9277Z" fill="black"/>
</svg>
