<svg width="33" height="29" viewBox="0 0 33 29" fill="none" xmlns="http://www.w3.org/2000/svg">
<path d="M18.6328 19.9688C21.0469 19.8164 23.4434 19.5176 25.8223 19.0723C28.2012 18.6152 30.4453 18.0527 32.5547 17.3848V25.9453C32.5547 26.3555 32.4727 26.7422 32.3086 27.1055C32.1562 27.4688 31.9453 27.791 31.6758 28.0723C31.4062 28.3418 31.0898 28.5586 30.7266 28.7227C30.375 28.8867 29.9941 28.9688 29.584 28.9688H3.07617C2.66602 28.9688 2.27344 28.8867 1.89844 28.7227C1.52344 28.5586 1.19531 28.3418 0.914062 28.0723C0.632812 27.791 0.410156 27.4688 0.246094 27.1055C0.0820312 26.7422 0 26.3555 0 25.9453V17.4727C2.26172 18.2812 4.55859 18.9023 6.89062 19.3359C9.22266 19.7578 11.5957 19.998 14.0098 20.0566V20.4434C14.0098 20.748 14.1152 21.0059 14.3262 21.2168C14.5371 21.4277 14.8066 21.5332 15.1348 21.5332H17.5078C17.8359 21.5332 18.1055 21.4277 18.3164 21.2168C18.5273 21.0059 18.6328 20.748 18.6328 20.4434V19.9688ZM14.0098 17.8066C11.5957 17.748 9.2168 17.4902 6.87305 17.0332C4.5293 16.5762 2.23828 15.9258 0 15.082V9.03516C0 8.625 0.0820312 8.23828 0.246094 7.875C0.410156 7.51172 0.632812 7.19531 0.914062 6.92578C1.19531 6.64453 1.52344 6.42187 1.89844 6.25781C2.27344 6.09375 2.66602 6.01172 3.07617 6.01172H6.04688L6.09961 5.87109C6.13477 5.78906 6.17578 5.67773 6.22266 5.53711C6.26953 5.39648 6.32227 5.24414 6.38086 5.08008C6.45117 4.9043 6.51562 4.72852 6.57422 4.55273C6.71484 4.14258 6.87305 3.67383 7.04883 3.14648C7.20117 2.71289 7.43555 2.30859 7.75195 1.93359C8.08008 1.54688 8.46094 1.21289 8.89453 0.931641C9.33984 0.638672 9.82031 0.410156 10.3359 0.246094C10.8633 0.0820312 11.3965 0 11.9355 0H20.707C21.2461 0 21.7734 0.0820312 22.2891 0.246094C22.8164 0.410156 23.2969 0.638672 23.7305 0.931641C24.1758 1.21289 24.5566 1.54688 24.873 1.93359C25.2012 2.30859 25.4414 2.71289 25.5938 3.14648C25.7695 3.67383 25.9277 4.14258 26.0684 4.55273C26.1855 4.9043 26.291 5.23242 26.3848 5.53711C26.4902 5.83008 26.543 5.98828 26.543 6.01172H29.584C29.9941 6.01172 30.375 6.09375 30.7266 6.25781C31.0898 6.42187 31.4062 6.64453 31.6758 6.92578C31.9453 7.19531 32.1562 7.51172 32.3086 7.875C32.4727 8.23828 32.5547 8.625 32.5547 9.03516V15.0117C31.5352 15.3633 30.457 15.6914 29.3203 15.9961C28.1953 16.2891 27.041 16.5527 25.8574 16.7871C24.6738 17.0098 23.4727 17.2031 22.2539 17.3672C21.0352 17.5312 19.8281 17.6543 18.6328 17.7363V17.5078C18.6328 17.1797 18.5273 16.9219 18.3164 16.7344C18.1055 16.5352 17.8359 16.4355 17.5078 16.4355H15.1348C14.8066 16.4355 14.5371 16.5352 14.3262 16.7344C14.1152 16.9219 14.0098 17.1797 14.0098 17.5078V17.8066ZM9.38672 3.9375L8.77148 6.01172H23.8184L23.2207 3.9375C23.1738 3.77344 23.0684 3.60352 22.9043 3.42773C22.752 3.25195 22.5586 3.09375 22.3242 2.95312C22.1016 2.8125 21.8496 2.69531 21.5684 2.60156C21.2871 2.50781 21 2.46094 20.707 2.46094H11.9355C11.6426 2.46094 11.3555 2.50781 11.0742 2.60156C10.793 2.69531 10.5352 2.8125 10.3008 2.95312C10.0664 3.09375 9.86719 3.25195 9.70312 3.42773C9.53906 3.60352 9.43359 3.77344 9.38672 3.9375Z" fill="black"/>
</svg>
