<?xml version="1.0" encoding="utf-8"?>
<!-- Svg Vector Icons : http://www.onlinewebfonts.com/icon -->
<!DOCTYPE svg PUBLIC "-//W3C//DTD SVG 1.1//EN" "http://www.w3.org/Graphics/SVG/1.1/DTD/svg11.dtd">
<svg version="1.1" xmlns="http://www.w3.org/2000/svg" xmlns:xlink="http://www.w3.org/1999/xlink" x="0px" y="0px" viewBox="0 0 256 256" enable-background="new 0 0 256 256" xml:space="preserve">
<metadata> Svg Vector Icons : http://www.onlinewebfonts.com/icon </metadata>
<g><g><path fill="#000000" d="M244.5,221.8c-2.3-3-6.4-3.6-9.5-1.6L110.7,58.3l1.4-1c3.2-2.4,3.8-6.8,1.6-10.1c4.6-8.2,6.4-17.9,5.3-28.5c-0.8-7.5-7.6-12.9-15.1-12.1c-7.5,0.8-13,7.6-12.1,15.1c0.7,6.1-0.4,10.7-3.3,14.3c-5.1,6.3-15.2,8.6-18.9,9C21.7,50.3,9.7,81.8,10,97.7c0.1,7.5,6.4,13.5,13.9,13.4c7.5-0.2,13.5-6.4,13.4-13.9c0-0.2,0-21.1,34.9-25.1c0.6,0,2.3-0.2,4.7-0.7c0.2,0.8,0.6,1.7,1.2,2.5c2.5,3.2,7.1,3.9,10.4,1.4l0.4-0.3L213.1,237c-2.9,2.4-3.4,6.7-1.1,9.8c2.4,3.1,6.9,3.7,10,1.3l21.3-16.3C246.3,229.4,246.9,224.9,244.5,221.8z"/></g></g>
</svg>