<svg width="36" height="29" viewBox="0 0 36 29" fill="none" xmlns="http://www.w3.org/2000/svg">
<path d="M27.6855 6.92578C27.2285 6.92578 26.7949 6.83789 26.3848 6.66211C25.9863 6.47461 25.6348 6.22852 25.3301 5.92383C25.0371 5.60742 24.8027 5.23828 24.627 4.81641C24.4512 4.38281 24.3633 3.91992 24.3633 3.42773C24.3633 2.95898 24.4512 2.51367 24.627 2.0918C24.8027 1.66992 25.0371 1.30664 25.3301 1.00195C25.6348 0.697266 25.9863 0.457031 26.3848 0.28125C26.7949 0.09375 27.2285 0 27.6855 0C28.1426 0 28.5762 0.09375 28.9863 0.28125C29.3965 0.457031 29.7539 0.697266 30.0586 1.00195C30.375 1.30664 30.6211 1.66992 30.7969 2.0918C30.9727 2.51367 31.0605 2.95898 31.0605 3.42773C31.0605 3.91992 30.9727 4.38281 30.7969 4.81641C30.6211 5.23828 30.375 5.60742 30.0586 5.92383C29.7539 6.22852 29.3965 6.47461 28.9863 6.66211C28.5762 6.83789 28.1426 6.92578 27.6855 6.92578ZM7.18945 6.92578C6.73242 6.92578 6.29883 6.83789 5.88867 6.66211C5.47852 6.47461 5.12109 6.22852 4.81641 5.92383C4.52344 5.60742 4.28906 5.23828 4.11328 4.81641C3.9375 4.38281 3.84961 3.91992 3.84961 3.42773C3.84961 2.95898 3.9375 2.51367 4.11328 2.0918C4.28906 1.66992 4.52344 1.30664 4.81641 1.00195C5.12109 0.697266 5.47852 0.457031 5.88867 0.28125C6.29883 0.09375 6.73242 0 7.18945 0C7.6582 0 8.09766 0.09375 8.50781 0.28125C8.91797 0.457031 9.27539 0.697266 9.58008 1.00195C9.88477 1.30664 10.125 1.66992 10.3008 2.0918C10.4766 2.51367 10.5645 2.95898 10.5645 3.42773C10.5645 3.91992 10.4766 4.38281 10.3008 4.81641C10.125 5.23828 9.88477 5.60742 9.58008 5.92383C9.27539 6.22852 8.91797 6.47461 8.50781 6.66211C8.09766 6.83789 7.6582 6.92578 7.18945 6.92578ZM35.7188 16.9277C35.7656 17.0566 35.7891 17.1914 35.7891 17.332C35.7891 17.6602 35.6602 17.9238 35.4023 18.123C35.1562 18.3223 34.8867 18.4219 34.5938 18.4219C34.3828 18.4219 34.1836 18.3691 33.9961 18.2637C33.8203 18.1465 33.6855 17.9531 33.5918 17.6836L31.5352 11.5664H30.4629L33.7852 21.8672H30.5508V27.8086C30.5508 28.1836 30.4277 28.4648 30.1816 28.6523C29.9473 28.8398 29.6895 28.9336 29.4082 28.9336C29.1152 28.9336 28.8516 28.8398 28.6172 28.6523C28.3828 28.4648 28.2656 28.1836 28.2656 27.8086V21.8672H27.0879V27.8086C27.0879 28.1836 26.9707 28.4648 26.7363 28.6523C26.5137 28.8398 26.2617 28.9336 25.9805 28.9336C25.6992 28.9336 25.4297 28.8398 25.1719 28.6523C24.9258 28.4648 24.8027 28.1836 24.8027 27.8086V21.8672H21.498L24.8906 11.5664H23.6426L22.2715 13.3945V18.4746C22.2715 18.7207 22.1895 18.9258 22.0254 19.0898C21.873 19.2539 21.6738 19.3359 21.4277 19.3359C21.2051 19.3359 21 19.2539 20.8125 19.0898C20.6367 18.9258 20.5488 18.7207 20.5488 18.4746V14.8887L19.9336 15.3984V27.6855C19.9336 28.0605 19.8516 28.3711 19.6875 28.6172C19.5352 28.875 19.2891 29.0039 18.9492 29.0039C18.5859 29.0039 18.3047 28.875 18.1055 28.6172C17.918 28.3711 17.8242 28.0605 17.8242 27.6855V21.8672H16.6641V27.6855C16.6641 28.0605 16.5703 28.3711 16.3828 28.6172C16.207 28.875 15.9375 29.0039 15.5742 29.0039C15.2344 29.0039 14.9648 28.8691 14.7656 28.5996C14.5781 28.3301 14.4844 28.0254 14.4844 27.6855V14.0625L13.9219 13.5527V18.4746C13.9219 18.7207 13.8281 18.9258 13.6406 19.0898C13.4648 19.2539 13.2656 19.3359 13.043 19.3359C12.8086 19.3359 12.6094 19.2539 12.4453 19.0898C12.293 18.9258 12.2168 18.7207 12.2168 18.4746V11.5664H11.0391V27.0879C11.0391 27.3691 10.9922 27.6152 10.8984 27.8262C10.8047 28.0371 10.6758 28.2129 10.5117 28.3535C10.3594 28.4941 10.1836 28.5996 9.98438 28.6699C9.79688 28.7402 9.59766 28.7754 9.38672 28.7754C9.17578 28.7754 8.9707 28.7402 8.77148 28.6699C8.58398 28.5996 8.4082 28.4941 8.24414 28.3535C8.0918 28.2129 7.96875 28.0371 7.875 27.8262C7.78125 27.6152 7.73438 27.3691 7.73438 27.0879V20.8301H6.57422V27.0879C6.57422 27.3691 6.52734 27.6152 6.43359 27.8262C6.33984 28.0371 6.21094 28.2129 6.04688 28.3535C5.89453 28.4941 5.71875 28.5996 5.51953 28.6699C5.33203 28.7402 5.13281 28.7754 4.92188 28.7754C4.71094 28.7754 4.50586 28.7402 4.30664 28.6699C4.11914 28.5996 3.94922 28.4941 3.79688 28.3535C3.64453 28.2129 3.52148 28.0371 3.42773 27.8262C3.33398 27.6152 3.28711 27.3691 3.28711 27.0879V11.5664H2.12695V18.4746C2.12695 18.8496 2.01562 19.1309 1.79297 19.3184C1.57031 19.4941 1.32422 19.582 1.05469 19.582C0.785156 19.582 0.539062 19.4941 0.316406 19.3184C0.105469 19.1309 0 18.8496 0 18.4746V11.2324C0 10.2129 0.269531 9.42188 0.808594 8.85938C1.35938 8.29688 2.18555 8.01562 3.28711 8.01562H11.1094C11.8008 8.01562 12.3809 8.15625 12.8496 8.4375C13.3301 8.71875 13.7402 9.08789 14.0801 9.54492C14.0801 9.56836 14.1445 9.65625 14.2734 9.80859C14.4023 9.96094 14.5664 10.1602 14.7656 10.4062H19.7754C20.0801 10.4062 20.3555 10.4766 20.6016 10.6172C20.8477 10.7461 21.0703 10.9102 21.2695 11.1094C21.4805 10.8398 21.6914 10.5762 21.9023 10.3184C22.125 10.0488 22.3184 9.80273 22.4824 9.58008C22.6816 9.32227 22.8691 9.07617 23.0449 8.8418C23.3027 8.60742 23.5723 8.41406 23.8535 8.26172C24.1465 8.09766 24.4922 8.01562 24.8906 8.01562H29.6191C30.0176 8.01562 30.4043 8.03906 30.7793 8.08594C31.166 8.13281 31.5234 8.22656 31.8516 8.36719C32.1797 8.50781 32.4727 8.70117 32.7305 8.94727C32.9883 9.19336 33.2051 9.51562 33.3809 9.91406L35.7188 16.9277ZM17.2969 9.24609C16.9922 9.24609 16.7051 9.18164 16.4355 9.05273C16.1777 8.92383 15.9492 8.75391 15.75 8.54297C15.5508 8.33203 15.3926 8.08594 15.2754 7.80469C15.1582 7.52344 15.0996 7.23047 15.0996 6.92578C15.0996 6.59766 15.1582 6.29297 15.2754 6.01172C15.3926 5.73047 15.5508 5.48438 15.75 5.27344C15.9492 5.0625 16.1777 4.89844 16.4355 4.78125C16.7051 4.66406 16.9922 4.60547 17.2969 4.60547C17.6133 4.60547 17.9062 4.66406 18.1758 4.78125C18.4453 4.89844 18.6797 5.0625 18.8789 5.27344C19.0898 5.48438 19.2539 5.73047 19.3711 6.01172C19.4883 6.29297 19.5469 6.59766 19.5469 6.92578C19.5469 7.23047 19.4883 7.52344 19.3711 7.80469C19.2539 8.08594 19.0898 8.33203 18.8789 8.54297C18.6797 8.75391 18.4453 8.92383 18.1758 9.05273C17.9062 9.18164 17.6133 9.24609 17.2969 9.24609Z" fill="black"/>
</svg>
