<svg width="29" height="36" viewBox="0 0 29 36" fill="none" xmlns="http://www.w3.org/2000/svg">
<path d="M14.5723 6.1875H12.5684V2.37305C12.627 2.00977 12.7383 1.67578 12.9023 1.37109C13.0312 1.10156 13.2246 0.849609 13.4824 0.615234C13.7402 0.380859 14.0742 0.222656 14.4844 0.140625C14.8711 0.0703125 15.2402 0.0351562 15.5918 0.0351562C16.5059 0.0351562 17.291 0.234375 17.9473 0.632812C18.6152 1.01953 19.166 1.51758 19.5996 2.12695C20.0449 2.72461 20.3789 3.38672 20.6016 4.11328C20.8242 4.83984 20.9473 5.53125 20.9707 6.1875C20.1738 6.1875 19.5527 6.1875 19.1074 6.1875C18.6621 6.1875 18.3281 6.1875 18.1055 6.1875C17.8828 6.17578 17.7363 6.16992 17.666 6.16992C17.6074 6.16992 17.5664 6.16992 17.543 6.16992C17.4844 6.16992 17.4316 6.17578 17.3848 6.1875C17.3496 6.1875 17.3203 6.1875 17.2969 6.1875V5.99414C17.2969 5.37305 17.2207 4.83398 17.0684 4.37695C16.916 3.91992 16.7109 3.54492 16.4531 3.25195C16.207 2.94727 15.9199 2.72461 15.5918 2.58398C15.2637 2.43164 14.9238 2.34961 14.5723 2.33789V6.1875ZM0 24.3633C0 23.1914 0.0117188 21.9727 0.0351562 20.707C0.0703125 19.4297 0.123047 18.1816 0.193359 16.9629C0.263672 15.7324 0.363281 14.5664 0.492188 13.4648C0.632812 12.3516 0.802734 11.3789 1.00195 10.5469C1.21289 9.71484 1.46484 9.05273 1.75781 8.56055C2.05078 8.06836 2.39648 7.82227 2.79492 7.82227C4.10742 7.82227 5.21484 8.25586 6.11719 9.12305C7.03125 9.99023 7.76953 11.3965 8.33203 13.3418C8.90625 15.2754 9.31641 17.8008 9.5625 20.918C9.82031 24.0352 9.94922 27.8496 9.94922 32.3613C9.94922 32.8887 9.94922 33.4219 9.94922 33.9609C9.94922 34.5117 9.94336 35.0684 9.93164 35.6309C9.93164 35.666 9.85547 35.5723 9.70312 35.3496C9.55078 35.1387 9.3457 34.8398 9.08789 34.4531C8.83008 34.0781 8.53711 33.6445 8.20898 33.1523C7.89258 32.6602 7.56445 32.1504 7.22461 31.623C6.42773 30.3926 5.53125 28.9922 4.53516 27.4219L0.158203 31.9219C0.123047 31.2656 0.09375 30.5332 0.0703125 29.7246C0.046875 29.0332 0.0292969 28.2363 0.0175781 27.334C0.00585938 26.4199 0 25.4297 0 24.3633ZM1.37109 33.1172L4.44727 30.1465L6.48633 33.1172H1.37109ZM19.2305 23.5195C18.5742 23.543 17.8711 23.5723 17.1211 23.6074C16.3828 23.6309 15.6621 23.6602 14.959 23.6953C14.2676 23.7188 13.6348 23.7422 13.0605 23.7656C12.4863 23.7773 12.0352 23.7832 11.707 23.7832C11.5781 21.5684 11.4141 19.6348 11.2148 17.9824C11.0273 16.3301 10.8047 14.9121 10.5469 13.7285C10.2891 12.5332 10.002 11.5488 9.68555 10.7754C9.36914 10.002 9.0293 9.375 8.66602 8.89453C8.30273 8.41406 7.91016 8.05664 7.48828 7.82227C7.06641 7.57617 6.62695 7.40625 6.16992 7.3125H22.0078C22.0078 7.30078 22.1602 7.37695 22.4648 7.54102C22.7812 7.70508 23.168 7.98047 23.625 8.36719C24.082 8.74219 24.5801 9.24023 25.1191 9.86133C25.6699 10.4707 26.1738 11.2266 26.6309 12.1289C27.0879 13.0195 27.4688 14.0684 27.7734 15.2754C28.0898 16.4707 28.248 17.8359 28.248 19.3711C28.248 19.5352 28.248 19.6992 28.248 19.8633C28.248 20.0273 28.2422 20.1973 28.2305 20.373C28.2188 20.5371 28.207 20.7246 28.1953 20.9355C28.1836 21.1113 28.1719 21.3223 28.1602 21.5684C28.1484 21.8145 28.1309 22.0898 28.1074 22.3945C27.4277 22.6641 26.5664 22.8809 25.5234 23.0449C24.4922 23.1973 23.2148 23.3145 21.6914 23.3965V19.6699H19.2305V23.5195ZM4.79883 6.1875H2.79492V2.33789C2.86523 1.97461 2.98242 1.64062 3.14648 1.33594C3.27539 1.06641 3.46289 0.814453 3.70898 0.580078C3.95508 0.333984 4.27148 0.175781 4.6582 0.105469C5.04492 0.0351562 5.4082 0 5.74805 0C6.65039 0 7.42969 0.199219 8.08594 0.597656C8.74219 0.996094 9.28711 1.5 9.7207 2.10938C10.1543 2.70703 10.4766 3.36914 10.6875 4.0957C10.9102 4.82227 11.0332 5.51953 11.0566 6.1875C10.2715 6.1875 9.65625 6.1875 9.21094 6.1875C8.77734 6.1875 8.44922 6.1875 8.22656 6.1875C8.01562 6.17578 7.875 6.16992 7.80469 6.16992C7.74609 6.16992 7.70508 6.16992 7.68164 6.16992C7.62305 6.16992 7.57031 6.17578 7.52344 6.1875C7.48828 6.1875 7.45898 6.1875 7.43555 6.1875V5.92383C7.43555 5.31445 7.36523 4.78711 7.22461 4.3418C7.08398 3.88477 6.89062 3.50977 6.64453 3.2168C6.39844 2.91211 6.11719 2.68359 5.80078 2.53125C5.48438 2.37891 5.15039 2.29688 4.79883 2.28516V6.1875ZM11.7949 25.5586C12.3223 25.5469 13.0254 25.5293 13.9043 25.5059C14.7949 25.4707 15.7617 25.4297 16.8047 25.3828C17.8594 25.3242 18.9551 25.2598 20.0918 25.1895C21.2285 25.1074 22.3125 25.0195 23.3438 24.9258C24.3867 24.8203 25.3359 24.7031 26.1914 24.5742C27.0469 24.4453 27.7266 24.2988 28.2305 24.1348C28.1836 24.7559 28.125 25.4121 28.0547 26.1035C27.9844 26.7832 27.9082 27.4629 27.8262 28.1426C27.7441 28.8223 27.6621 29.4785 27.5801 30.1113C27.5098 30.7441 27.4336 31.3125 27.3516 31.8164C27.2812 32.332 27.2109 32.7598 27.1406 33.0996C27.082 33.4512 27.0352 33.6738 27 33.7676C26.9414 33.9082 26.6836 34.043 26.2266 34.1719C25.7695 34.3125 25.1777 34.4414 24.4512 34.5586C23.7363 34.6875 22.9277 34.8105 22.0254 34.9277C21.1348 35.0449 20.2266 35.1562 19.3008 35.2617C17.1211 35.4961 14.666 35.7188 11.9355 35.9297C11.9355 35.1914 11.9355 34.5996 11.9355 34.1543C11.9473 33.7207 11.9531 33.3809 11.9531 33.1348C11.9531 32.9004 11.9531 32.7305 11.9531 32.625C11.9531 32.5312 11.9531 32.4492 11.9531 32.3789C11.9531 31.1133 11.9355 29.9062 11.9004 28.7578C11.877 27.6094 11.8418 26.543 11.7949 25.5586ZM17.4551 34.084L17.6836 30.0586L15.0469 30.4805L14.7832 34.3828L17.4551 34.084ZM24.9434 32.8184L25.1191 28.8809L22.5703 29.3203L22.3066 33.2051L24.9434 32.8184Z" fill="black"/>
</svg>
