<svg width="35" height="35" viewBox="0 0 35 35" fill="none" xmlns="http://www.w3.org/2000/svg">
<path d="M16.6641 6.73242C16.6641 7.21289 17.3438 7.91016 18.7031 8.82422C20.0742 9.72656 22.1191 10.8574 24.8379 12.2168L17.6133 16.6992L0 7.06641L16.7871 0L34.4004 6.29297L30.4453 8.75391C29.9883 8.60156 29.4492 8.41992 28.8281 8.20898C28.2188 7.99805 27.5566 7.78125 26.8418 7.55859C26.1387 7.33594 25.4062 7.11914 24.6445 6.9082C23.8945 6.68555 23.1562 6.49219 22.4297 6.32812C21.7148 6.16406 21.0234 6.0293 20.3555 5.92383C19.6992 5.81836 19.1191 5.76562 18.6152 5.76562C18.2988 5.76562 18.0059 5.78906 17.7363 5.83594C17.4785 5.87109 17.2617 5.94141 17.0859 6.04688C16.957 6.12891 16.8516 6.22852 16.7695 6.3457C16.6992 6.46289 16.6641 6.5918 16.6641 6.73242ZM17.5254 18.791L26.5078 13.5527V20.373C25.8984 20.877 25.2246 21.3633 24.4863 21.832C23.748 22.3008 22.9746 22.7168 22.166 23.0801C21.3574 23.4434 20.5312 23.7363 19.6875 23.959C18.8438 24.1816 18.0117 24.293 17.1914 24.293C16.1953 24.293 15.1875 24.1465 14.168 23.8535C13.1602 23.5605 12.1816 23.1738 11.2324 22.6934C10.2949 22.2129 9.41602 21.668 8.5957 21.0586C7.78711 20.4375 7.07812 19.8105 6.46875 19.1777C5.85938 18.5449 5.37891 17.9297 5.02734 17.332C4.67578 16.7227 4.5 16.1836 4.5 15.7148C4.5 15.5039 4.50586 15.2402 4.51758 14.9238C4.54102 14.6074 4.58789 14.2852 4.6582 13.957C4.74023 13.6172 4.85156 13.3008 4.99219 13.0078C5.14453 12.7148 5.34961 12.4805 5.60742 12.3047L17.5254 18.791ZM31.0078 10.6523C31.0078 10.6758 31.0078 10.7109 31.0078 10.7578C31.0195 10.793 31.0371 10.8281 31.0605 10.8633V33.0293C31.0137 33.4863 30.832 33.7969 30.5156 33.9609C30.2109 34.1367 29.7715 34.2246 29.1973 34.2246C28.9629 34.2129 28.7637 34.1777 28.5996 34.1191C28.4355 34.0605 28.2949 33.9902 28.1777 33.9082C28.0723 33.8262 27.9902 33.7383 27.9316 33.6445C27.873 33.5508 27.832 33.457 27.8086 33.3633H27.6855V11.8477C27.498 11.7188 27.1641 11.5312 26.6836 11.2852C26.2148 11.0273 25.6699 10.7461 25.0488 10.4414C24.4277 10.125 23.7715 9.79687 23.0801 9.45703C22.4004 9.10547 21.7559 8.77148 21.1465 8.45508C20.5371 8.12695 19.998 7.82812 19.5293 7.55859C19.0723 7.28906 18.7676 7.07227 18.6152 6.9082C18.5684 6.86133 18.5449 6.82031 18.5449 6.78516C18.5449 6.75 18.5742 6.73242 18.6328 6.73242C18.9375 6.76758 19.3418 6.83789 19.8457 6.94336C20.3613 7.04883 20.9355 7.17773 21.5684 7.33008C22.2012 7.48242 22.8691 7.6582 23.5723 7.85742C24.2871 8.04492 24.9902 8.24414 25.6816 8.45508C26.3848 8.6543 27.0527 8.85938 27.6855 9.07031C28.3184 9.28125 28.875 9.48633 29.3555 9.68555C29.8477 9.87305 30.2402 10.0547 30.5332 10.2305C30.8379 10.3945 30.9961 10.5352 31.0078 10.6523Z" fill="black"/>
</svg>
